<svg xmlns="http://www.w3.org/2000/svg" xmlns:xlink="http://www.w3.org/1999/xlink" width="200" zoomAndPan="magnify" viewBox="0 0 150 149.999998" height="200" preserveAspectRatio="xMidYMid meet" version="1.0"><defs><filter x="0%" y="0%" width="100%" height="100%" id="id1"><feColorMatrix values="0 0 0 0 1 0 0 0 0 1 0 0 0 0 1 0 0 0 1 0" color-interpolation-filters="sRGB"/></filter><g/><mask id="id2"><g filter="url(#id1)"><rect x="-15" width="180" fill="#000000" y="-15" height="179.999997" fill-opacity="0.4863"/></g></mask><clipPath id="id3"><path d="M 0.277344 0.378906 L 75.640625 0.378906 L 75.640625 75.742188 L 0.277344 75.742188 Z M 0.277344 0.378906 " clip-rule="nonzero"/></clipPath><clipPath id="id4"><rect x="0" width="76" y="0" height="76"/></clipPath><clipPath id="id5"><path d="M 49.792969 16.335938 L 100.035156 16.335938 L 100.035156 66.042969 L 49.792969 66.042969 Z M 49.792969 16.335938 " clip-rule="nonzero"/></clipPath></defs><rect x="-15" width="180" fill="#ffffff" y="-15" height="179.999997" fill-opacity="1"/><rect x="-15" width="180" fill="#ffffff" y="-15" height="179.999997" fill-opacity="1"/><rect x="-15" width="180" fill="#ffffff" y="-15" height="179.999997" fill-opacity="1"/><rect x="-15" width="180" fill="#ffffff" y="-15" height="179.999997" fill-opacity="1"/><g mask="url(#id2)"><g transform="matrix(1, 0, 0, 1, 37, 3)"><g clip-path="url(#id4)"><g clip-path="url(#id3)"><path fill="#ffbd59" d="M 37.960938 0.378906 C 17.148438 0.378906 0.277344 17.25 0.277344 38.0625 C 0.277344 58.875 17.148438 75.742188 37.960938 75.742188 C 58.769531 75.742188 75.640625 58.875 75.640625 38.0625 C 75.640625 17.25 58.769531 0.378906 37.960938 0.378906 " fill-opacity="1" fill-rule="nonzero"/></g></g></g></g><g clip-path="url(#id5)"><path fill="#545454" d="M 94.8125 55.933594 L 92.746094 55.933594 L 85.722656 50.976562 C 85.175781 50.597656 84.8125 50.027344 84.699219 49.363281 L 83.546875 43.003906 C 83.855469 41.792969 83.875 40.53125 83.566406 39.292969 L 82.679688 35.714844 L 83.28125 35.714844 C 84.003906 35.714844 84.703125 35.976562 85.234375 36.457031 C 85.777344 36.941406 86.125 37.605469 86.214844 38.320312 L 87.46875 48.457031 C 87.492188 48.640625 87.578125 48.816406 87.707031 48.949219 L 92.726562 54.003906 C 92.886719 54.160156 93.097656 54.25 93.320312 54.25 L 96.667969 54.25 C 96.753906 54.25 96.847656 54.234375 96.929688 54.207031 L 98.339844 53.734375 L 98.339844 55.414062 L 97.304688 55.933594 Z M 80.769531 64.359375 L 80.769531 60.453125 L 92.582031 57.621094 L 94.8125 57.621094 C 96.164062 57.621094 97.363281 58.363281 97.949219 59.449219 C 97.957031 59.460938 97.960938 59.46875 97.964844 59.476562 C 98.039062 59.613281 98.09375 59.757812 98.144531 59.90625 C 98.175781 59.992188 98.207031 60.078125 98.226562 60.167969 C 98.253906 60.265625 98.269531 60.367188 98.285156 60.472656 C 98.304688 60.589844 98.316406 60.707031 98.324219 60.820312 C 98.328125 60.945312 98.328125 61.0625 98.320312 61.179688 C 98.3125 61.296875 98.304688 61.410156 98.285156 61.523438 C 98.265625 61.632812 98.246094 61.742188 98.214844 61.851562 C 98.1875 61.964844 98.152344 62.074219 98.109375 62.183594 C 98.074219 62.285156 98.027344 62.382812 97.980469 62.480469 C 97.925781 62.582031 97.875 62.683594 97.816406 62.785156 C 97.753906 62.878906 97.683594 62.972656 97.609375 63.0625 C 97.546875 63.148438 97.480469 63.238281 97.40625 63.316406 C 97.320312 63.40625 97.222656 63.484375 97.125 63.5625 C 97.050781 63.625 96.984375 63.695312 96.902344 63.75 C 96.78125 63.835938 96.648438 63.902344 96.519531 63.972656 C 96.453125 64.007812 96.390625 64.050781 96.324219 64.078125 C 96.15625 64.152344 95.976562 64.207031 95.796875 64.25 C 95.757812 64.261719 95.722656 64.277344 95.683594 64.289062 C 95.457031 64.332031 95.226562 64.359375 94.992188 64.359375 Z M 64.875 64.359375 C 64.414062 64.359375 64.039062 63.980469 64.039062 63.515625 C 64.039062 63.054688 64.414062 62.675781 64.875 62.675781 L 65.710938 62.675781 C 65.820312 62.675781 65.925781 62.65625 66.023438 62.617188 L 71.929688 60.234375 C 72.363281 60.0625 72.824219 60.070312 73.246094 60.269531 C 73.664062 60.464844 73.976562 60.816406 74.121094 61.257812 C 74.257812 61.671875 74.691406 61.910156 75.105469 61.808594 L 79.097656 60.851562 L 79.097656 64.359375 Z M 54.203125 64.296875 C 54.144531 64.285156 54.085938 64.265625 54.027344 64.246094 C 53.878906 64.210938 53.730469 64.167969 53.589844 64.113281 C 53.542969 64.09375 53.496094 64.070312 53.449219 64.050781 C 53.304688 63.980469 53.160156 63.902344 53.023438 63.816406 C 52.984375 63.789062 52.945312 63.765625 52.910156 63.738281 C 52.722656 63.605469 52.558594 63.453125 52.402344 63.289062 C 52.273438 63.148438 52.148438 63 52.046875 62.84375 C 51.992188 62.761719 51.953125 62.675781 51.90625 62.589844 C 51.847656 62.476562 51.785156 62.367188 51.738281 62.253906 C 51.699219 62.152344 51.671875 62.042969 51.640625 61.933594 C 51.605469 61.824219 51.570312 61.714844 51.550781 61.597656 C 51.53125 61.5 51.527344 61.398438 51.523438 61.296875 C 51.507812 61.160156 51.496094 61.027344 51.5 60.882812 C 51.507812 60.523438 51.582031 60.175781 51.699219 59.851562 C 51.734375 59.757812 51.765625 59.664062 51.808594 59.578125 C 51.820312 59.554688 51.832031 59.535156 51.84375 59.511719 C 52.363281 58.496094 53.410156 57.773438 54.59375 57.644531 C 54.636719 57.644531 54.675781 57.632812 54.714844 57.632812 C 54.816406 57.625 54.914062 57.621094 55.011719 57.621094 L 57.246094 57.621094 L 67.699219 60.125 L 65.550781 60.988281 L 64.875 60.988281 C 63.488281 60.988281 62.363281 62.121094 62.363281 63.515625 C 62.363281 63.8125 62.425781 64.097656 62.519531 64.359375 L 54.835938 64.359375 C 54.621094 64.359375 54.40625 64.332031 54.203125 64.296875 Z M 52.523438 55.933594 L 51.488281 55.414062 L 51.488281 53.734375 L 52.898438 54.207031 C 52.984375 54.234375 53.074219 54.25 53.164062 54.25 L 56.507812 54.25 C 56.730469 54.25 56.945312 54.160156 57.101562 54.003906 L 62.121094 48.949219 C 62.25 48.816406 62.335938 48.640625 62.359375 48.457031 L 63.613281 38.320312 C 63.703125 37.605469 64.050781 36.941406 64.59375 36.457031 C 65.125 35.976562 65.824219 35.714844 66.546875 35.714844 L 67.148438 35.714844 L 66.261719 39.292969 C 65.949219 40.546875 65.976562 41.832031 66.300781 43.058594 L 65.136719 50.054688 C 65.015625 50.785156 64.585938 51.417969 63.960938 51.800781 L 57.113281 55.933594 Z M 83.796875 55.933594 L 81.6875 51.691406 C 81.15625 50.617188 81.105469 49.359375 81.546875 48.242188 L 82.40625 46.089844 L 83.046875 49.660156 C 83.242188 50.765625 83.847656 51.726562 84.765625 52.363281 L 89.828125 55.933594 Z M 66.785156 50.328125 L 67.472656 46.210938 L 68.28125 48.242188 C 68.726562 49.359375 68.671875 50.617188 68.140625 51.691406 L 66.03125 55.933594 L 60.363281 55.933594 L 64.820312 53.246094 C 65.871094 52.609375 66.585938 51.542969 66.785156 50.328125 Z M 79.742188 58.964844 L 75.375 60.011719 C 75.035156 59.460938 74.539062 59.015625 73.945312 58.742188 C 73.121094 58.355469 72.160156 58.332031 71.308594 58.667969 L 70.324219 59.066406 C 70.25 59.023438 70.175781 58.984375 70.085938 58.964844 L 64.472656 57.621094 L 85.359375 57.621094 Z M 68.875 35.714844 L 70.730469 35.714844 C 70.730469 35.847656 70.757812 35.976562 70.769531 36.105469 C 70.773438 36.148438 70.777344 36.195312 70.785156 36.238281 C 70.976562 37.773438 71.972656 39.054688 73.351562 39.613281 C 73.363281 39.621094 73.378906 39.628906 73.390625 39.632812 C 73.488281 39.671875 73.585938 39.703125 73.695312 39.738281 C 73.785156 39.773438 73.882812 39.789062 73.972656 39.808594 C 74.023438 39.820312 74.070312 39.839844 74.121094 39.847656 C 74.25 39.875 74.382812 39.898438 74.511719 39.90625 C 74.640625 39.917969 74.765625 39.925781 74.890625 39.925781 C 74.898438 39.925781 74.90625 39.925781 74.914062 39.925781 C 74.945312 39.925781 74.972656 39.917969 75.003906 39.917969 C 75.21875 39.914062 75.4375 39.890625 75.65625 39.851562 C 75.738281 39.839844 75.820312 39.816406 75.898438 39.796875 C 75.992188 39.777344 76.085938 39.757812 76.183594 39.734375 C 76.257812 39.707031 76.316406 39.671875 76.386719 39.644531 C 76.496094 39.601562 76.597656 39.558594 76.699219 39.507812 C 76.765625 39.480469 76.839844 39.457031 76.898438 39.421875 C 76.984375 39.375 77.066406 39.316406 77.148438 39.261719 C 77.199219 39.230469 77.25 39.199219 77.300781 39.167969 C 77.699219 38.886719 78.046875 38.539062 78.332031 38.128906 C 78.371094 38.070312 78.40625 38.007812 78.445312 37.945312 C 78.5 37.863281 78.554688 37.792969 78.601562 37.707031 C 78.632812 37.640625 78.648438 37.582031 78.679688 37.519531 C 78.734375 37.40625 78.78125 37.292969 78.824219 37.175781 C 78.847656 37.105469 78.886719 37.039062 78.90625 36.972656 C 78.9375 36.878906 78.949219 36.78125 78.972656 36.6875 C 78.988281 36.621094 79.007812 36.554688 79.019531 36.484375 C 79.066406 36.230469 79.097656 35.976562 79.097656 35.714844 L 80.953125 35.714844 L 81.945312 39.699219 C 82.246094 40.914062 82.160156 42.164062 81.699219 43.324219 L 79.996094 47.617188 C 79.375 49.179688 79.445312 50.9375 80.191406 52.441406 L 81.925781 55.933594 L 67.902344 55.933594 L 69.636719 52.441406 C 70.382812 50.9375 70.453125 49.179688 69.832031 47.617188 L 68.128906 43.324219 C 67.667969 42.164062 67.585938 40.914062 67.882812 39.699219 Z M 74.914062 32.34375 C 75.503906 32.34375 76.0625 32.234375 76.585938 32.050781 L 76.585938 32.839844 C 76.585938 33.695312 76.886719 34.53125 77.425781 35.195312 L 77.425781 35.714844 C 77.425781 35.875 77.40625 36.03125 77.378906 36.183594 C 77.371094 36.21875 77.363281 36.253906 77.351562 36.289062 C 77.328125 36.390625 77.296875 36.488281 77.261719 36.585938 C 77.234375 36.660156 77.203125 36.734375 77.171875 36.800781 C 77.140625 36.863281 77.105469 36.921875 77.074219 36.980469 C 76.964844 37.164062 76.84375 37.335938 76.703125 37.484375 C 76.683594 37.5 76.671875 37.511719 76.660156 37.523438 C 76.511719 37.667969 76.347656 37.785156 76.171875 37.890625 C 76.105469 37.925781 76.046875 37.960938 75.980469 37.996094 C 75.925781 38.023438 75.867188 38.042969 75.8125 38.066406 C 75.722656 38.105469 75.625 38.128906 75.527344 38.15625 C 75.453125 38.171875 75.375 38.191406 75.296875 38.203125 C 75.21875 38.214844 75.136719 38.222656 75.058594 38.226562 C 74.964844 38.230469 74.871094 38.230469 74.777344 38.230469 C 74.664062 38.222656 74.550781 38.214844 74.445312 38.195312 C 74.425781 38.191406 74.410156 38.1875 74.394531 38.183594 C 74.382812 38.183594 74.371094 38.175781 74.363281 38.175781 C 74.242188 38.148438 74.125 38.109375 74.007812 38.066406 L 73.984375 38.054688 C 73.964844 38.050781 73.957031 38.042969 73.953125 38.042969 C 73.023438 37.632812 72.40625 36.640625 72.40625 35.574219 L 72.40625 35.195312 C 72.941406 34.53125 73.242188 33.695312 73.242188 32.839844 L 73.242188 32.050781 C 73.765625 32.234375 74.324219 32.34375 74.914062 32.34375 Z M 74.914062 18.023438 C 75.628906 18.023438 76.238281 18.480469 76.476562 19.117188 C 75.984375 18.957031 75.460938 18.863281 74.914062 18.863281 C 74.367188 18.863281 73.84375 18.957031 73.351562 19.117188 C 73.589844 18.480469 74.199219 18.023438 74.914062 18.023438 Z M 74.914062 20.550781 C 76.285156 20.550781 77.464844 21.386719 77.980469 22.578125 C 77.492188 22.355469 76.949219 22.234375 76.390625 22.234375 L 73.4375 22.234375 C 72.878906 22.234375 72.335938 22.355469 71.847656 22.578125 C 72.363281 21.386719 73.542969 20.550781 74.914062 20.550781 Z M 74.914062 30.660156 C 73.066406 30.660156 71.566406 29.148438 71.566406 27.289062 L 71.566406 25.007812 C 71.960938 24.339844 72.65625 23.917969 73.4375 23.917969 L 76.390625 23.917969 C 77.171875 23.917969 77.867188 24.339844 78.261719 25.007812 L 78.261719 27.289062 C 78.261719 29.148438 76.761719 30.660156 74.914062 30.660156 Z M 99.667969 51.878906 C 99.445312 51.722656 99.167969 51.679688 98.910156 51.765625 L 96.53125 52.566406 L 93.667969 52.566406 L 89.09375 47.960938 L 87.875 38.113281 C 87.738281 36.988281 87.191406 35.953125 86.34375 35.195312 C 85.503906 34.445312 84.417969 34.03125 83.28125 34.03125 L 78.652344 34.03125 C 78.40625 33.683594 78.261719 33.269531 78.261719 32.839844 L 78.261719 31.046875 C 79.285156 30.121094 79.933594 28.785156 79.933594 27.289062 L 79.933594 23.917969 C 79.933594 22.414062 79.269531 21.058594 78.226562 20.132812 C 78.246094 19.992188 78.261719 19.847656 78.261719 19.707031 C 78.261719 17.847656 76.761719 16.335938 74.914062 16.335938 C 73.066406 16.335938 71.566406 17.847656 71.566406 19.707031 C 71.566406 19.847656 71.585938 19.992188 71.601562 20.132812 C 70.558594 21.058594 69.894531 22.414062 69.894531 23.917969 L 69.894531 27.289062 C 69.894531 28.785156 70.542969 30.121094 71.566406 31.046875 L 71.566406 32.839844 C 71.566406 33.269531 71.425781 33.683594 71.175781 34.03125 L 66.546875 34.03125 C 65.410156 34.03125 64.324219 34.445312 63.484375 35.195312 C 62.636719 35.953125 62.089844 36.988281 61.953125 38.109375 L 60.734375 47.960938 L 56.164062 52.566406 L 53.300781 52.566406 L 50.917969 51.765625 C 50.664062 51.679688 50.382812 51.722656 50.164062 51.878906 C 49.945312 52.042969 49.816406 52.292969 49.816406 52.566406 L 49.816406 55.933594 C 49.816406 56.253906 49.996094 56.542969 50.277344 56.6875 L 51.445312 57.273438 C 50.742188 57.921875 50.226562 58.769531 49.984375 59.726562 C 49.957031 59.820312 49.921875 59.914062 49.902344 60.015625 C 49.878906 60.15625 49.863281 60.296875 49.839844 60.472656 C 49.828125 60.550781 49.816406 60.660156 49.824219 60.792969 C 49.824219 60.8125 49.824219 60.828125 49.824219 60.847656 C 49.824219 60.894531 49.816406 60.945312 49.816406 60.988281 C 49.816406 61.0625 49.824219 61.132812 49.824219 61.199219 C 49.828125 61.261719 49.832031 61.320312 49.835938 61.378906 C 49.84375 61.496094 49.859375 61.609375 49.875 61.71875 C 49.882812 61.777344 49.886719 61.828125 49.902344 61.886719 C 49.921875 62.007812 49.945312 62.125 49.980469 62.242188 C 49.988281 62.285156 50 62.328125 50.011719 62.371094 C 50.046875 62.5 50.089844 62.625 50.136719 62.75 C 50.148438 62.785156 50.160156 62.816406 50.171875 62.847656 C 50.222656 62.976562 50.28125 63.101562 50.34375 63.226562 C 50.355469 63.257812 50.367188 63.285156 50.382812 63.3125 C 50.445312 63.433594 50.511719 63.554688 50.582031 63.664062 C 50.605469 63.699219 50.625 63.730469 50.644531 63.761719 C 50.710938 63.867188 50.785156 63.964844 50.863281 64.0625 C 50.886719 64.101562 50.917969 64.144531 50.949219 64.183594 C 51.003906 64.253906 51.070312 64.320312 51.128906 64.386719 C 51.183594 64.445312 51.226562 64.503906 51.285156 64.5625 C 51.359375 64.640625 51.4375 64.707031 51.515625 64.777344 L 51.644531 64.894531 C 51.664062 64.90625 51.683594 64.914062 51.699219 64.933594 C 51.882812 65.078125 52.074219 65.207031 52.273438 65.328125 C 52.316406 65.355469 52.355469 65.378906 52.398438 65.40625 C 52.613281 65.523438 52.839844 65.625 53.070312 65.714844 C 53.113281 65.730469 53.15625 65.75 53.199219 65.765625 C 53.433594 65.84375 53.679688 65.914062 53.929688 65.957031 C 53.964844 65.964844 54.003906 65.96875 54.042969 65.976562 C 54.304688 66.019531 54.5625 66.042969 54.835938 66.042969 L 94.992188 66.042969 C 95.167969 66.042969 95.34375 66.035156 95.515625 66.019531 C 95.527344 66.015625 95.539062 66.011719 95.546875 66.011719 C 95.710938 65.992188 95.871094 65.96875 96.027344 65.933594 C 96.046875 65.929688 96.066406 65.925781 96.078125 65.921875 C 96.230469 65.886719 96.378906 65.851562 96.527344 65.800781 C 96.554688 65.792969 96.585938 65.777344 96.617188 65.769531 C 96.746094 65.722656 96.871094 65.675781 96.996094 65.625 C 97.046875 65.601562 97.09375 65.574219 97.144531 65.550781 C 97.242188 65.5 97.34375 65.457031 97.4375 65.398438 C 97.503906 65.363281 97.566406 65.324219 97.628906 65.28125 C 97.707031 65.234375 97.78125 65.1875 97.851562 65.140625 C 97.925781 65.085938 98 65.03125 98.066406 64.976562 C 98.125 64.929688 98.1875 64.886719 98.242188 64.835938 C 98.3125 64.773438 98.386719 64.707031 98.460938 64.640625 C 98.507812 64.589844 98.554688 64.542969 98.601562 64.496094 C 98.636719 64.457031 98.675781 64.429688 98.707031 64.390625 C 98.742188 64.351562 98.769531 64.308594 98.804688 64.269531 C 98.847656 64.21875 98.886719 64.164062 98.933594 64.113281 C 98.992188 64.039062 99.046875 63.957031 99.105469 63.878906 C 99.148438 63.816406 99.191406 63.746094 99.234375 63.683594 C 99.277344 63.609375 99.324219 63.539062 99.363281 63.46875 C 99.414062 63.375 99.460938 63.285156 99.507812 63.191406 C 99.527344 63.136719 99.558594 63.085938 99.582031 63.03125 C 99.636719 62.90625 99.683594 62.78125 99.726562 62.652344 C 99.738281 62.621094 99.75 62.597656 99.761719 62.566406 C 99.808594 62.410156 99.851562 62.257812 99.886719 62.097656 C 99.886719 62.089844 99.890625 62.078125 99.894531 62.074219 C 99.929688 61.90625 99.957031 61.742188 99.976562 61.574219 C 99.976562 61.570312 99.980469 61.5625 99.980469 61.550781 C 99.996094 61.40625 100.003906 61.257812 100.007812 61.113281 C 100.007812 61.078125 100.007812 61.050781 100.007812 61.019531 C 100.007812 61.007812 100.011719 61 100.011719 60.988281 C 100.011719 60.871094 100.003906 60.757812 99.992188 60.636719 C 99.992188 60.589844 99.992188 60.542969 99.988281 60.496094 C 99.988281 60.492188 99.988281 60.488281 99.988281 60.484375 C 99.984375 60.425781 99.96875 60.375 99.964844 60.320312 C 99.945312 60.214844 99.933594 60.109375 99.914062 60.003906 C 99.707031 58.933594 99.152344 57.984375 98.386719 57.273438 L 99.550781 56.6875 C 99.832031 56.542969 100.011719 56.253906 100.011719 55.933594 L 100.011719 52.566406 C 100.011719 52.292969 99.882812 52.042969 99.667969 51.878906 " fill-opacity="1" fill-rule="nonzero"/></g><g fill="#171717" fill-opacity="1"><g transform="translate(14.89292, 129.978831)"><g><path d="M 3.53125 -2.40625 L 3.53125 0 L 2.796875 0 L 2.796875 -2.40625 L 0.015625 -6.984375 L 0.796875 -6.984375 L 3.1875 -3.0625 L 5.578125 -6.984375 L 6.3125 -6.984375 Z M 3.53125 -2.40625 "/></g></g></g><g fill="#171717" fill-opacity="1"><g transform="translate(23.819001, 129.978831)"><g><path d="M 4.1875 0.0625 C 3.5 0.0625 2.875 -0.09375 2.3125 -0.40625 C 1.75 -0.71875 1.304688 -1.140625 0.984375 -1.671875 C 0.671875 -2.210938 0.515625 -2.816406 0.515625 -3.484375 C 0.515625 -4.160156 0.671875 -4.765625 0.984375 -5.296875 C 1.304688 -5.835938 1.75 -6.257812 2.3125 -6.5625 C 2.875 -6.875 3.5 -7.03125 4.1875 -7.03125 C 4.875 -7.03125 5.492188 -6.878906 6.046875 -6.578125 C 6.609375 -6.273438 7.046875 -5.851562 7.359375 -5.3125 C 7.679688 -4.769531 7.84375 -4.160156 7.84375 -3.484375 C 7.84375 -2.816406 7.679688 -2.210938 7.359375 -1.671875 C 7.046875 -1.128906 6.609375 -0.703125 6.046875 -0.390625 C 5.492188 -0.0859375 4.875 0.0625 4.1875 0.0625 Z M 4.1875 -0.59375 C 4.738281 -0.59375 5.234375 -0.71875 5.671875 -0.96875 C 6.117188 -1.21875 6.46875 -1.5625 6.71875 -2 C 6.976562 -2.445312 7.109375 -2.941406 7.109375 -3.484375 C 7.109375 -4.035156 6.976562 -4.53125 6.71875 -4.96875 C 6.46875 -5.40625 6.117188 -5.75 5.671875 -6 C 5.234375 -6.25 4.738281 -6.375 4.1875 -6.375 C 3.632812 -6.375 3.132812 -6.25 2.6875 -6 C 2.238281 -5.75 1.882812 -5.40625 1.625 -4.96875 C 1.375 -4.53125 1.25 -4.035156 1.25 -3.484375 C 1.25 -2.941406 1.375 -2.445312 1.625 -2 C 1.882812 -1.5625 2.238281 -1.21875 2.6875 -0.96875 C 3.132812 -0.71875 3.632812 -0.59375 4.1875 -0.59375 Z M 4.1875 -0.59375 "/></g></g></g><g fill="#171717" fill-opacity="1"><g transform="translate(34.779293, 129.978831)"><g><path d="M 3.953125 0.0625 C 3.046875 0.0625 2.335938 -0.195312 1.828125 -0.71875 C 1.328125 -1.238281 1.078125 -1.992188 1.078125 -2.984375 L 1.078125 -6.984375 L 1.8125 -6.984375 L 1.8125 -3.015625 C 1.8125 -2.203125 1.992188 -1.59375 2.359375 -1.1875 C 2.722656 -0.789062 3.253906 -0.59375 3.953125 -0.59375 C 4.648438 -0.59375 5.179688 -0.789062 5.546875 -1.1875 C 5.910156 -1.59375 6.09375 -2.203125 6.09375 -3.015625 L 6.09375 -6.984375 L 6.8125 -6.984375 L 6.8125 -2.984375 C 6.8125 -1.992188 6.554688 -1.238281 6.046875 -0.71875 C 5.546875 -0.195312 4.847656 0.0625 3.953125 0.0625 Z M 3.953125 0.0625 "/></g></g></g><g fill="#171717" fill-opacity="1"><g transform="translate(45.270917, 129.978831)"><g><path d="M 5.90625 0 L 4.3125 -2.25 C 4.125 -2.226562 3.9375 -2.21875 3.75 -2.21875 L 1.875 -2.21875 L 1.875 0 L 1.140625 0 L 1.140625 -6.984375 L 3.75 -6.984375 C 4.632812 -6.984375 5.328125 -6.769531 5.828125 -6.34375 C 6.335938 -5.914062 6.59375 -5.328125 6.59375 -4.578125 C 6.59375 -4.035156 6.453125 -3.578125 6.171875 -3.203125 C 5.898438 -2.828125 5.507812 -2.554688 5 -2.390625 L 6.703125 0 Z M 3.734375 -2.84375 C 4.421875 -2.84375 4.945312 -2.992188 5.3125 -3.296875 C 5.675781 -3.609375 5.859375 -4.035156 5.859375 -4.578125 C 5.859375 -5.148438 5.675781 -5.585938 5.3125 -5.890625 C 4.945312 -6.191406 4.421875 -6.34375 3.734375 -6.34375 L 1.875 -6.34375 L 1.875 -2.84375 Z M 3.734375 -2.84375 "/></g></g></g><g fill="#171717" fill-opacity="1"><g transform="translate(55.074494, 129.978831)"><g/></g></g><g fill="#171717" fill-opacity="1"><g transform="translate(60.281159, 129.978831)"><g><path d="M 3.75 -6.984375 C 4.632812 -6.984375 5.328125 -6.769531 5.828125 -6.34375 C 6.335938 -5.914062 6.59375 -5.328125 6.59375 -4.578125 C 6.59375 -3.835938 6.335938 -3.253906 5.828125 -2.828125 C 5.328125 -2.410156 4.632812 -2.203125 3.75 -2.203125 L 1.875 -2.203125 L 1.875 0 L 1.140625 0 L 1.140625 -6.984375 Z M 3.734375 -2.84375 C 4.421875 -2.84375 4.945312 -2.992188 5.3125 -3.296875 C 5.675781 -3.609375 5.859375 -4.035156 5.859375 -4.578125 C 5.859375 -5.148438 5.675781 -5.585938 5.3125 -5.890625 C 4.945312 -6.191406 4.421875 -6.34375 3.734375 -6.34375 L 1.875 -6.34375 L 1.875 -2.84375 Z M 3.734375 -2.84375 "/></g></g></g><g fill="#171717" fill-opacity="1"><g transform="translate(70.034881, 129.978831)"><g><path d="M 6.078125 -0.640625 L 6.078125 0 L 1.140625 0 L 1.140625 -6.984375 L 5.921875 -6.984375 L 5.921875 -6.34375 L 1.875 -6.34375 L 1.875 -3.859375 L 5.484375 -3.859375 L 5.484375 -3.234375 L 1.875 -3.234375 L 1.875 -0.640625 Z M 6.078125 -0.640625 "/></g></g></g><g fill="#171717" fill-opacity="1"><g transform="translate(79.299994, 129.978831)"><g><path d="M 5.90625 0 L 4.3125 -2.25 C 4.125 -2.226562 3.9375 -2.21875 3.75 -2.21875 L 1.875 -2.21875 L 1.875 0 L 1.140625 0 L 1.140625 -6.984375 L 3.75 -6.984375 C 4.632812 -6.984375 5.328125 -6.769531 5.828125 -6.34375 C 6.335938 -5.914062 6.59375 -5.328125 6.59375 -4.578125 C 6.59375 -4.035156 6.453125 -3.578125 6.171875 -3.203125 C 5.898438 -2.828125 5.507812 -2.554688 5 -2.390625 L 6.703125 0 Z M 3.734375 -2.84375 C 4.421875 -2.84375 4.945312 -2.992188 5.3125 -3.296875 C 5.675781 -3.609375 5.859375 -4.035156 5.859375 -4.578125 C 5.859375 -5.148438 5.675781 -5.585938 5.3125 -5.890625 C 4.945312 -6.191406 4.421875 -6.34375 3.734375 -6.34375 L 1.875 -6.34375 L 1.875 -2.84375 Z M 3.734375 -2.84375 "/></g></g></g><g fill="#171717" fill-opacity="1"><g transform="translate(89.103571, 129.978831)"><g><path d="M 3.0625 0.0625 C 2.539062 0.0625 2.039062 -0.0195312 1.5625 -0.1875 C 1.09375 -0.351562 0.726562 -0.570312 0.46875 -0.84375 L 0.75 -1.421875 C 1.007812 -1.160156 1.347656 -0.953125 1.765625 -0.796875 C 2.179688 -0.640625 2.613281 -0.5625 3.0625 -0.5625 C 3.6875 -0.5625 4.15625 -0.675781 4.46875 -0.90625 C 4.78125 -1.132812 4.9375 -1.429688 4.9375 -1.796875 C 4.9375 -2.078125 4.847656 -2.300781 4.671875 -2.46875 C 4.503906 -2.632812 4.296875 -2.757812 4.046875 -2.84375 C 3.804688 -2.9375 3.46875 -3.039062 3.03125 -3.15625 C 2.507812 -3.28125 2.09375 -3.40625 1.78125 -3.53125 C 1.46875 -3.65625 1.195312 -3.84375 0.96875 -4.09375 C 0.75 -4.34375 0.640625 -4.6875 0.640625 -5.125 C 0.640625 -5.476562 0.734375 -5.796875 0.921875 -6.078125 C 1.109375 -6.367188 1.394531 -6.597656 1.78125 -6.765625 C 2.164062 -6.941406 2.640625 -7.03125 3.203125 -7.03125 C 3.609375 -7.03125 4 -6.972656 4.375 -6.859375 C 4.757812 -6.753906 5.09375 -6.609375 5.375 -6.421875 L 5.125 -5.828125 C 4.832031 -6.023438 4.519531 -6.171875 4.1875 -6.265625 C 3.851562 -6.359375 3.523438 -6.40625 3.203125 -6.40625 C 2.597656 -6.40625 2.140625 -6.285156 1.828125 -6.046875 C 1.515625 -5.816406 1.359375 -5.515625 1.359375 -5.140625 C 1.359375 -4.859375 1.441406 -4.632812 1.609375 -4.46875 C 1.785156 -4.300781 2 -4.171875 2.25 -4.078125 C 2.507812 -3.992188 2.859375 -3.894531 3.296875 -3.78125 C 3.804688 -3.65625 4.21875 -3.53125 4.53125 -3.40625 C 4.84375 -3.289062 5.109375 -3.109375 5.328125 -2.859375 C 5.546875 -2.609375 5.65625 -2.269531 5.65625 -1.84375 C 5.65625 -1.488281 5.5625 -1.164062 5.375 -0.875 C 5.1875 -0.59375 4.894531 -0.363281 4.5 -0.1875 C 4.113281 -0.0195312 3.632812 0.0625 3.0625 0.0625 Z M 3.0625 0.0625 "/></g></g></g><g fill="#171717" fill-opacity="1"><g transform="translate(97.83022, 129.978831)"><g><path d="M 4.1875 0.0625 C 3.5 0.0625 2.875 -0.09375 2.3125 -0.40625 C 1.75 -0.71875 1.304688 -1.140625 0.984375 -1.671875 C 0.671875 -2.210938 0.515625 -2.816406 0.515625 -3.484375 C 0.515625 -4.160156 0.671875 -4.765625 0.984375 -5.296875 C 1.304688 -5.835938 1.75 -6.257812 2.3125 -6.5625 C 2.875 -6.875 3.5 -7.03125 4.1875 -7.03125 C 4.875 -7.03125 5.492188 -6.878906 6.046875 -6.578125 C 6.609375 -6.273438 7.046875 -5.851562 7.359375 -5.3125 C 7.679688 -4.769531 7.84375 -4.160156 7.84375 -3.484375 C 7.84375 -2.816406 7.679688 -2.210938 7.359375 -1.671875 C 7.046875 -1.128906 6.609375 -0.703125 6.046875 -0.390625 C 5.492188 -0.0859375 4.875 0.0625 4.1875 0.0625 Z M 4.1875 -0.59375 C 4.738281 -0.59375 5.234375 -0.71875 5.671875 -0.96875 C 6.117188 -1.21875 6.46875 -1.5625 6.71875 -2 C 6.976562 -2.445312 7.109375 -2.941406 7.109375 -3.484375 C 7.109375 -4.035156 6.976562 -4.53125 6.71875 -4.96875 C 6.46875 -5.40625 6.117188 -5.75 5.671875 -6 C 5.234375 -6.25 4.738281 -6.375 4.1875 -6.375 C 3.632812 -6.375 3.132812 -6.25 2.6875 -6 C 2.238281 -5.75 1.882812 -5.40625 1.625 -4.96875 C 1.375 -4.53125 1.25 -4.035156 1.25 -3.484375 C 1.25 -2.941406 1.375 -2.445312 1.625 -2 C 1.882812 -1.5625 2.238281 -1.21875 2.6875 -0.96875 C 3.132812 -0.71875 3.632812 -0.59375 4.1875 -0.59375 Z M 4.1875 -0.59375 "/></g></g></g><g fill="#171717" fill-opacity="1"><g transform="translate(108.790512, 129.978831)"><g><path d="M 6.96875 -6.984375 L 6.96875 0 L 6.359375 0 L 1.875 -5.65625 L 1.875 0 L 1.140625 0 L 1.140625 -6.984375 L 1.75 -6.984375 L 6.234375 -1.3125 L 6.234375 -6.984375 Z M 6.96875 -6.984375 "/></g></g></g><g fill="#171717" fill-opacity="1"><g transform="translate(119.491543, 129.978831)"><g><path d="M 5.515625 -1.859375 L 1.625 -1.859375 L 0.78125 0 L 0.015625 0 L 3.203125 -6.984375 L 3.9375 -6.984375 L 7.125 0 L 6.34375 0 Z M 5.25 -2.46875 L 3.5625 -6.203125 L 1.890625 -2.46875 Z M 5.25 -2.46875 "/></g></g></g><g fill="#171717" fill-opacity="1"><g transform="translate(129.235298, 129.978831)"><g><path d="M 1.140625 -6.984375 L 1.875 -6.984375 L 1.875 -0.640625 L 5.78125 -0.640625 L 5.78125 0 L 1.140625 0 Z M 1.140625 -6.984375 "/></g></g></g><g fill="#171717" fill-opacity="1"><g transform="translate(22.108562, 143.875624)"><g><path d="M 3.53125 -2.40625 L 3.53125 0 L 2.796875 0 L 2.796875 -2.40625 L 0.015625 -6.984375 L 0.796875 -6.984375 L 3.1875 -3.0625 L 5.578125 -6.984375 L 6.3125 -6.984375 Z M 3.53125 -2.40625 "/></g></g></g><g fill="#171717" fill-opacity="1"><g transform="translate(31.034643, 143.875624)"><g><path d="M 4.1875 0.0625 C 3.5 0.0625 2.875 -0.09375 2.3125 -0.40625 C 1.75 -0.71875 1.304688 -1.140625 0.984375 -1.671875 C 0.671875 -2.210938 0.515625 -2.816406 0.515625 -3.484375 C 0.515625 -4.160156 0.671875 -4.765625 0.984375 -5.296875 C 1.304688 -5.835938 1.75 -6.257812 2.3125 -6.5625 C 2.875 -6.875 3.5 -7.03125 4.1875 -7.03125 C 4.875 -7.03125 5.492188 -6.878906 6.046875 -6.578125 C 6.609375 -6.273438 7.046875 -5.851562 7.359375 -5.3125 C 7.679688 -4.769531 7.84375 -4.160156 7.84375 -3.484375 C 7.84375 -2.816406 7.679688 -2.210938 7.359375 -1.671875 C 7.046875 -1.128906 6.609375 -0.703125 6.046875 -0.390625 C 5.492188 -0.0859375 4.875 0.0625 4.1875 0.0625 Z M 4.1875 -0.59375 C 4.738281 -0.59375 5.234375 -0.71875 5.671875 -0.96875 C 6.117188 -1.21875 6.46875 -1.5625 6.71875 -2 C 6.976562 -2.445312 7.109375 -2.941406 7.109375 -3.484375 C 7.109375 -4.035156 6.976562 -4.53125 6.71875 -4.96875 C 6.46875 -5.40625 6.117188 -5.75 5.671875 -6 C 5.234375 -6.25 4.738281 -6.375 4.1875 -6.375 C 3.632812 -6.375 3.132812 -6.25 2.6875 -6 C 2.238281 -5.75 1.882812 -5.40625 1.625 -4.96875 C 1.375 -4.53125 1.25 -4.035156 1.25 -3.484375 C 1.25 -2.941406 1.375 -2.445312 1.625 -2 C 1.882812 -1.5625 2.238281 -1.21875 2.6875 -0.96875 C 3.132812 -0.71875 3.632812 -0.59375 4.1875 -0.59375 Z M 4.1875 -0.59375 "/></g></g></g><g fill="#171717" fill-opacity="1"><g transform="translate(41.994935, 143.875624)"><g><path d="M 6.046875 -3.484375 L 6.765625 -3.484375 L 6.765625 -0.828125 C 6.429688 -0.546875 6.039062 -0.328125 5.59375 -0.171875 C 5.15625 -0.015625 4.691406 0.0625 4.203125 0.0625 C 3.503906 0.0625 2.875 -0.0859375 2.3125 -0.390625 C 1.75 -0.703125 1.304688 -1.128906 0.984375 -1.671875 C 0.671875 -2.210938 0.515625 -2.816406 0.515625 -3.484375 C 0.515625 -4.160156 0.671875 -4.769531 0.984375 -5.3125 C 1.304688 -5.851562 1.75 -6.273438 2.3125 -6.578125 C 2.875 -6.878906 3.503906 -7.03125 4.203125 -7.03125 C 4.734375 -7.03125 5.222656 -6.945312 5.671875 -6.78125 C 6.117188 -6.613281 6.492188 -6.363281 6.796875 -6.03125 L 6.34375 -5.5625 C 5.789062 -6.101562 5.085938 -6.375 4.234375 -6.375 C 3.671875 -6.375 3.160156 -6.25 2.703125 -6 C 2.253906 -5.75 1.898438 -5.40625 1.640625 -4.96875 C 1.378906 -4.53125 1.25 -4.035156 1.25 -3.484375 C 1.25 -2.941406 1.378906 -2.453125 1.640625 -2.015625 C 1.898438 -1.578125 2.253906 -1.226562 2.703125 -0.96875 C 3.148438 -0.71875 3.660156 -0.59375 4.234375 -0.59375 C 4.941406 -0.59375 5.546875 -0.773438 6.046875 -1.140625 Z M 6.046875 -3.484375 "/></g></g></g><g fill="#171717" fill-opacity="1"><g transform="translate(52.297095, 143.875624)"><g><path d="M 5.515625 -1.859375 L 1.625 -1.859375 L 0.78125 0 L 0.015625 0 L 3.203125 -6.984375 L 3.9375 -6.984375 L 7.125 0 L 6.34375 0 Z M 5.25 -2.46875 L 3.5625 -6.203125 L 1.890625 -2.46875 Z M 5.25 -2.46875 "/></g></g></g><g fill="#171717" fill-opacity="1"><g transform="translate(62.04085, 143.875624)"><g/></g></g><g fill="#171717" fill-opacity="1"><g transform="translate(67.247515, 143.875624)"><g><path d="M 2.5 -6.34375 L 0.046875 -6.34375 L 0.046875 -6.984375 L 5.6875 -6.984375 L 5.6875 -6.34375 L 3.234375 -6.34375 L 3.234375 0 L 2.5 0 Z M 2.5 -6.34375 "/></g></g></g><g fill="#171717" fill-opacity="1"><g transform="translate(75.565327, 143.875624)"><g><path d="M 5.90625 0 L 4.3125 -2.25 C 4.125 -2.226562 3.9375 -2.21875 3.75 -2.21875 L 1.875 -2.21875 L 1.875 0 L 1.140625 0 L 1.140625 -6.984375 L 3.75 -6.984375 C 4.632812 -6.984375 5.328125 -6.769531 5.828125 -6.34375 C 6.335938 -5.914062 6.59375 -5.328125 6.59375 -4.578125 C 6.59375 -4.035156 6.453125 -3.578125 6.171875 -3.203125 C 5.898438 -2.828125 5.507812 -2.554688 5 -2.390625 L 6.703125 0 Z M 3.734375 -2.84375 C 4.421875 -2.84375 4.945312 -2.992188 5.3125 -3.296875 C 5.675781 -3.609375 5.859375 -4.035156 5.859375 -4.578125 C 5.859375 -5.148438 5.675781 -5.585938 5.3125 -5.890625 C 4.945312 -6.191406 4.421875 -6.34375 3.734375 -6.34375 L 1.875 -6.34375 L 1.875 -2.84375 Z M 3.734375 -2.84375 "/></g></g></g><g fill="#171717" fill-opacity="1"><g transform="translate(85.368904, 143.875624)"><g><path d="M 5.515625 -1.859375 L 1.625 -1.859375 L 0.78125 0 L 0.015625 0 L 3.203125 -6.984375 L 3.9375 -6.984375 L 7.125 0 L 6.34375 0 Z M 5.25 -2.46875 L 3.5625 -6.203125 L 1.890625 -2.46875 Z M 5.25 -2.46875 "/></g></g></g><g fill="#171717" fill-opacity="1"><g transform="translate(95.112659, 143.875624)"><g><path d="M 1.140625 -6.984375 L 1.875 -6.984375 L 1.875 0 L 1.140625 0 Z M 1.140625 -6.984375 "/></g></g></g><g fill="#171717" fill-opacity="1"><g transform="translate(100.718187, 143.875624)"><g><path d="M 6.96875 -6.984375 L 6.96875 0 L 6.359375 0 L 1.875 -5.65625 L 1.875 0 L 1.140625 0 L 1.140625 -6.984375 L 1.75 -6.984375 L 6.234375 -1.3125 L 6.234375 -6.984375 Z M 6.96875 -6.984375 "/></g></g></g><g fill="#171717" fill-opacity="1"><g transform="translate(111.419217, 143.875624)"><g><path d="M 6.078125 -0.640625 L 6.078125 0 L 1.140625 0 L 1.140625 -6.984375 L 5.921875 -6.984375 L 5.921875 -6.34375 L 1.875 -6.34375 L 1.875 -3.859375 L 5.484375 -3.859375 L 5.484375 -3.234375 L 1.875 -3.234375 L 1.875 -0.640625 Z M 6.078125 -0.640625 "/></g></g></g><g fill="#171717" fill-opacity="1"><g transform="translate(120.684331, 143.875624)"><g><path d="M 5.90625 0 L 4.3125 -2.25 C 4.125 -2.226562 3.9375 -2.21875 3.75 -2.21875 L 1.875 -2.21875 L 1.875 0 L 1.140625 0 L 1.140625 -6.984375 L 3.75 -6.984375 C 4.632812 -6.984375 5.328125 -6.769531 5.828125 -6.34375 C 6.335938 -5.914062 6.59375 -5.328125 6.59375 -4.578125 C 6.59375 -4.035156 6.453125 -3.578125 6.171875 -3.203125 C 5.898438 -2.828125 5.507812 -2.554688 5 -2.390625 L 6.703125 0 Z M 3.734375 -2.84375 C 4.421875 -2.84375 4.945312 -2.992188 5.3125 -3.296875 C 5.675781 -3.609375 5.859375 -4.035156 5.859375 -4.578125 C 5.859375 -5.148438 5.675781 -5.585938 5.3125 -5.890625 C 4.945312 -6.191406 4.421875 -6.34375 3.734375 -6.34375 L 1.875 -6.34375 L 1.875 -2.84375 Z M 3.734375 -2.84375 "/></g></g></g><g fill="#72685f" fill-opacity="1"><g transform="translate(21.280301, 74.947424)"><g><path d="M 13.460938 14.59375 L 14.917969 13.25 L 13.777344 12.015625 L 20.460938 -3.378906 L 16.835938 -7.308594 L 15.398438 -5.984375 L 16.757812 -4.511719 L 2.75 0.0585938 L 1.640625 -1.144531 L 0.183594 0.199219 L 4.332031 4.695312 L 5.785156 3.351562 L 4.359375 1.804688 C 5.480469 1.414062 6.597656 1.054688 7.539062 0.726562 L 13.566406 7.257812 C 13.160156 8.203125 12.664062 9.234375 12.214844 10.320312 L 10.753906 8.738281 L 9.300781 10.082031 Z M 14.398438 5.3125 L 9.53125 0.0351562 C 11.980469 -0.8125 14.574219 -1.65625 18.089844 -2.84375 C 16.625 0.460938 15.476562 2.902344 14.398438 5.3125 Z M 14.398438 5.3125 "/></g></g></g><g fill="#72685f" fill-opacity="1"><g transform="translate(37.139629, 91.114473)"><g><path d="M 14.886719 5.992188 L 13.101562 5.027344 L 17.171875 -2.511719 L 18.914062 -1.566406 L 19.796875 -3.203125 L 16.421875 -5.027344 L 15.289062 -3.191406 C 15.257812 -5.007812 14.058594 -6.585938 12.445312 -7.457031 C 9.351562 -9.128906 5.75 -8.347656 3.867188 -4.863281 C 1.957031 -1.332031 3.257812 2.042969 6.371094 3.726562 C 7.855469 4.527344 9.746094 4.929688 11.394531 3.90625 L 10.648438 5.757812 L 14.027344 7.582031 Z M 7.34375 2.140625 C 5.1875 0.972656 4.300781 -1.445312 5.59375 -3.84375 C 6.878906 -6.21875 9.425781 -6.867188 11.558594 -5.714844 C 14.257812 -4.253906 14.597656 -1.59375 13.375 0.503906 C 12.226562 2.472656 9.847656 3.492188 7.34375 2.140625 Z M 7.34375 2.140625 "/></g></g></g><g fill="#72685f" fill-opacity="1"><g transform="translate(54.039967, 99.623777)"><g><path d="M 9.007812 -10.695312 C 6.722656 -11.261719 3.882812 -10.863281 3.304688 -8.300781 C 2.707031 -5.769531 5.101562 -4.699219 7.316406 -3.847656 C 9.125 -3.214844 10.503906 -2.484375 10.167969 -1.164062 C 9.75 0.390625 7.820312 0.164062 6.640625 -0.113281 C 5.554688 -0.371094 4.484375 -0.902344 3.617188 -1.640625 L 3.964844 -3.441406 L 2.207031 -3.855469 L 1.507812 -0.890625 C 2.960938 0.496094 4.234375 1.253906 6.160156 1.707031 C 8.859375 2.34375 11.453125 1.808594 12.078125 -0.636719 C 12.832031 -3.613281 9.964844 -4.722656 7.839844 -5.527344 C 6.386719 -6.050781 4.972656 -6.636719 5.234375 -7.847656 C 5.507812 -9.128906 6.976562 -9.421875 8.632812 -9.003906 C 9.355469 -8.832031 10.644531 -8.351562 11.191406 -7.867188 L 10.867188 -6.0625 L 12.550781 -5.664062 L 13.289062 -8.570312 C 12.128906 -9.578125 10.527344 -10.339844 9.007812 -10.695312 Z M 9.007812 -10.695312 "/></g></g></g><g fill="#72685f" fill-opacity="1"><g transform="translate(68.400007, 103.010741)"><g><path d="M 15.875 -2.324219 L 13.847656 -2.257812 L 13.570312 -10.820312 L 15.546875 -10.886719 L 15.488281 -12.742188 L 11.652344 -12.617188 L 11.597656 -10.460938 C 10.65625 -12.015625 8.824219 -12.773438 6.992188 -12.710938 C 3.480469 -12.597656 0.761719 -10.105469 0.890625 -6.148438 C 1.019531 -2.140625 3.84375 0.121094 7.382812 0.0078125 C 9.066406 -0.046875 10.902344 -0.652344 11.8125 -2.367188 L 12.101562 -0.394531 L 15.933594 -0.519531 Z M 7.421875 -1.851562 C 4.972656 -1.773438 2.984375 -3.417969 2.898438 -6.136719 C 2.808594 -8.835938 4.679688 -10.679688 7.105469 -10.757812 C 10.175781 -10.859375 11.804688 -8.730469 11.808594 -6.304688 C 11.808594 -4.027344 10.265625 -1.945312 7.421875 -1.851562 Z M 7.421875 -1.851562 "/></g></g></g><g fill="#72685f" fill-opacity="1"><g transform="translate(87.637242, 102.016972)"><g><path d="M 6.621094 -2.292969 L 6.019531 -4.023438 L 4.148438 -3.375 L 2.59375 -7.867188 C 1.808594 -10.136719 2.832031 -12.167969 4.9375 -12.898438 C 7.300781 -13.71875 8.632812 -12.894531 9.492188 -10.414062 L 11.097656 -5.785156 L 9.414062 -5.199219 L 10.011719 -3.46875 L 15.578125 -5.398438 L 14.980469 -7.128906 L 13.015625 -6.449219 L 11.402344 -11.101562 C 10.21875 -14.519531 7.847656 -15.921875 4.476562 -14.757812 C 2.933594 -14.222656 1.886719 -13.230469 1.324219 -11.382812 L 0.582031 -13.144531 L -3.066406 -11.878906 L -2.476562 -10.171875 L -0.558594 -10.835938 L 2.253906 -2.71875 L 0.289062 -2.039062 L 0.890625 -0.308594 Z M 6.621094 -2.292969 "/></g></g></g><g fill="#72685f" fill-opacity="1"><g transform="translate(105.957862, 95.488075)"><g><path d="M 15.652344 -12.21875 L 14.433594 -13.78125 L 13.105469 -12.742188 L -1.6875 -20.667969 L -5.902344 -17.378906 L -4.699219 -15.835938 L -3.117188 -17.070312 L 0.285156 -2.734375 L -1.003906 -1.730469 L 0.214844 -0.167969 L 5.035156 -3.929688 L 3.816406 -5.492188 L 2.15625 -4.195312 C 1.859375 -5.34375 1.59375 -6.488281 1.339844 -7.453125 L 8.347656 -12.925781 C 9.257812 -12.441406 10.246094 -11.859375 11.289062 -11.328125 L 9.59375 -10 L 10.8125 -8.441406 Z M 6.476562 -13.914062 L 0.816406 -9.496094 C 0.175781 -12.007812 -0.453125 -14.660156 -1.347656 -18.261719 C 1.824219 -16.53125 4.164062 -15.183594 6.476562 -13.914062 Z M 6.476562 -13.914062 "/></g></g></g><g fill="#72685f" fill-opacity="1"><g transform="translate(122.70028, 81.184947)"><g><path d="M 4.734375 -6.261719 L 3.152344 -7.457031 L 1.808594 -5.675781 L -8.855469 -13.738281 L -7.542969 -15.476562 L -9.121094 -16.671875 L -13.035156 -11.496094 L -11.453125 -10.300781 L -10.15625 -12.019531 L 0.511719 -3.960938 L -0.820312 -2.203125 L 0.761719 -1.007812 Z M 4.734375 -6.261719 "/></g></g></g></svg>