<svg xmlns="http://www.w3.org/2000/svg" xmlns:xlink="http://www.w3.org/1999/xlink" width="600" zoomAndPan="magnify" viewBox="0 0 450 449.999984" height="600" preserveAspectRatio="xMidYMid meet" version="1.0"><defs><filter x="0%" y="0%" width="100%" height="100%" id="id1"><feColorMatrix values="0 0 0 0 1 0 0 0 0 1 0 0 0 0 1 0 0 0 1 0" color-interpolation-filters="sRGB"/></filter><mask id="id2"><g filter="url(#id1)"><rect x="-45" width="540" fill="#000000" y="-44.999998" height="539.99998" fill-opacity="0.4863"/></g></mask><clipPath id="id3"><path d="M 0.320312 0.320312 L 337.316406 0.320312 L 337.316406 337.316406 L 0.320312 337.316406 Z M 0.320312 0.320312 " clip-rule="nonzero"/></clipPath><clipPath id="id4"><rect x="0" width="338" y="0" height="338"/></clipPath><clipPath id="id5"><path d="M 112.285156 114.257812 L 336.949219 114.257812 L 336.949219 336.53125 L 112.285156 336.53125 Z M 112.285156 114.257812 " clip-rule="nonzero"/></clipPath></defs><g mask="url(#id2)"><g transform="matrix(1, 0, 0, 1, 56, 56)"><g clip-path="url(#id4)"><g clip-path="url(#id3)"><path fill="#ffbd59" d="M 168.820312 0.320312 C 75.761719 0.320312 0.320312 75.761719 0.320312 168.820312 C 0.320312 261.878906 75.761719 337.316406 168.820312 337.316406 C 261.878906 337.316406 337.316406 261.878906 337.316406 168.820312 C 337.316406 75.761719 261.878906 0.320312 168.820312 0.320312 " fill-opacity="1" fill-rule="nonzero"/></g></g></g></g><g clip-path="url(#id5)"><path fill="#545454" d="M 313.597656 291.324219 L 304.359375 291.324219 L 272.941406 269.160156 C 270.5 267.453125 268.878906 264.90625 268.367188 261.933594 L 263.222656 233.503906 C 264.597656 228.085938 264.6875 222.4375 263.3125 216.902344 L 259.335938 200.90625 L 262.027344 200.90625 C 265.269531 200.90625 268.382812 202.082031 270.765625 204.21875 C 273.191406 206.394531 274.753906 209.351562 275.148438 212.5625 L 280.761719 257.886719 C 280.863281 258.710938 281.242188 259.492188 281.828125 260.078125 L 304.273438 282.683594 C 304.972656 283.390625 305.925781 283.789062 306.917969 283.789062 L 321.882812 283.789062 C 322.277344 283.789062 322.6875 283.714844 323.066406 283.597656 L 329.363281 281.476562 L 329.363281 288.996094 L 324.746094 291.324219 Z M 250.804688 328.996094 L 250.804688 311.527344 L 303.617188 298.855469 L 313.597656 298.855469 C 319.632812 298.855469 324.996094 302.183594 327.625 307.039062 C 327.652344 307.082031 327.667969 307.128906 327.699219 307.15625 C 328.019531 307.773438 328.269531 308.421875 328.5 309.085938 C 328.632812 309.46875 328.765625 309.851562 328.851562 310.246094 C 328.984375 310.6875 329.058594 311.144531 329.128906 311.617188 C 329.21875 312.132812 329.261719 312.660156 329.289062 313.175781 C 329.304688 313.71875 329.304688 314.25 329.277344 314.78125 C 329.246094 315.296875 329.203125 315.808594 329.128906 316.308594 C 329.042969 316.796875 328.941406 317.296875 328.808594 317.78125 C 328.675781 318.28125 328.53125 318.78125 328.339844 319.269531 C 328.179688 319.722656 327.976562 320.152344 327.757812 320.59375 C 327.523438 321.050781 327.289062 321.503906 327.027344 321.945312 C 326.75 322.375 326.425781 322.785156 326.105469 323.199219 C 325.8125 323.582031 325.519531 323.976562 325.183594 324.332031 C 324.804688 324.726562 324.367188 325.082031 323.941406 325.433594 C 323.605469 325.714844 323.300781 326.023438 322.933594 326.273438 C 322.394531 326.65625 321.808594 326.949219 321.222656 327.257812 C 320.933594 327.421875 320.65625 327.613281 320.347656 327.746094 C 319.601562 328.070312 318.796875 328.304688 317.996094 328.511719 C 317.820312 328.554688 317.660156 328.628906 317.484375 328.671875 C 316.476562 328.878906 315.4375 328.996094 314.398438 328.996094 Z M 179.726562 328.996094 C 177.664062 328.996094 175.984375 327.304688 175.984375 325.226562 C 175.984375 323.152344 177.664062 321.460938 179.726562 321.460938 L 183.464844 321.460938 C 183.949219 321.460938 184.414062 321.371094 184.855469 321.195312 L 211.273438 310.554688 C 213.203125 309.777344 215.277344 309.820312 217.148438 310.703125 C 219.019531 311.570312 220.421875 313.144531 221.066406 315.117188 C 221.679688 316.972656 223.621094 318.046875 225.480469 317.589844 L 243.320312 313.308594 L 243.320312 328.996094 Z M 132.011719 328.714844 C 131.75 328.65625 131.488281 328.570312 131.222656 328.496094 C 130.550781 328.332031 129.894531 328.140625 129.265625 327.890625 C 129.046875 327.804688 128.839844 327.699219 128.636719 327.613281 C 127.980469 327.304688 127.335938 326.949219 126.738281 326.566406 C 126.5625 326.449219 126.386719 326.332031 126.226562 326.214844 C 125.394531 325.625 124.648438 324.949219 123.960938 324.214844 C 123.375 323.582031 122.820312 322.917969 122.367188 322.210938 C 122.121094 321.859375 121.945312 321.460938 121.738281 321.078125 C 121.476562 320.578125 121.199219 320.09375 120.980469 319.578125 C 120.804688 319.121094 120.6875 318.636719 120.542969 318.148438 C 120.394531 317.648438 120.234375 317.164062 120.148438 316.648438 C 120.058594 316.207031 120.042969 315.75 120.015625 315.296875 C 119.957031 314.691406 119.898438 314.089844 119.914062 313.457031 C 119.957031 311.835938 120.292969 310.292969 120.804688 308.835938 C 120.964844 308.421875 121.097656 307.996094 121.300781 307.613281 C 121.34375 307.511719 121.402344 307.421875 121.449219 307.320312 C 123.769531 302.773438 128.460938 299.546875 133.75 298.976562 C 133.941406 298.960938 134.117188 298.914062 134.292969 298.914062 C 134.746094 298.886719 135.183594 298.855469 135.621094 298.855469 L 145.617188 298.855469 L 192.351562 310.054688 L 182.75 313.925781 L 179.726562 313.925781 C 173.527344 313.925781 168.5 318.988281 168.5 325.226562 C 168.5 326.554688 168.78125 327.820312 169.1875 328.996094 L 134.832031 328.996094 C 133.867188 328.996094 132.917969 328.878906 132.011719 328.714844 Z M 124.5 291.324219 L 119.867188 288.996094 L 119.867188 281.476562 L 126.167969 283.597656 C 126.546875 283.714844 126.957031 283.789062 127.351562 283.789062 L 142.316406 283.789062 C 143.308594 283.789062 144.257812 283.390625 144.960938 282.683594 L 167.40625 260.078125 C 167.992188 259.492188 168.371094 258.710938 168.472656 257.886719 L 174.085938 212.5625 C 174.480469 209.351562 176.042969 206.394531 178.46875 204.21875 C 180.851562 202.082031 183.960938 200.90625 187.207031 200.90625 L 189.894531 200.90625 L 185.921875 216.902344 C 184.53125 222.507812 184.648438 228.261719 186.097656 233.753906 L 180.894531 265.023438 C 180.351562 268.292969 178.4375 271.132812 175.632812 272.839844 L 145.019531 291.324219 Z M 264.335938 291.324219 L 254.910156 272.351562 C 252.527344 267.542969 252.292969 261.917969 254.28125 256.914062 L 258.109375 247.292969 L 260.988281 263.257812 C 261.851562 268.203125 264.570312 272.5 268.675781 275.355469 L 291.3125 291.324219 Z M 188.273438 266.246094 L 191.34375 247.835938 L 194.953125 256.914062 C 196.9375 261.917969 196.707031 267.542969 194.324219 272.351562 L 184.898438 291.324219 L 159.558594 291.324219 L 179.476562 279.300781 C 184.183594 276.445312 187.382812 271.691406 188.273438 266.246094 Z M 246.199219 304.875 L 226.675781 309.554688 C 225.15625 307.097656 222.9375 305.097656 220.289062 303.875 C 216.59375 302.140625 212.296875 302.035156 208.5 303.550781 L 204.085938 305.332031 C 203.761719 305.125 203.425781 304.964844 203.03125 304.875 L 177.925781 298.855469 L 271.320312 298.855469 Z M 197.609375 200.90625 L 205.910156 200.90625 C 205.910156 201.496094 206.027344 202.070312 206.085938 202.65625 C 206.101562 202.847656 206.117188 203.054688 206.144531 203.246094 C 207.007812 210.105469 211.464844 215.84375 217.632812 218.34375 C 217.691406 218.375 217.75 218.402344 217.808594 218.433594 C 218.246094 218.59375 218.683594 218.742188 219.164062 218.902344 C 219.574219 219.050781 220 219.125 220.40625 219.214844 C 220.628906 219.273438 220.847656 219.34375 221.066406 219.390625 C 221.648438 219.507812 222.234375 219.609375 222.820312 219.65625 C 223.390625 219.699219 223.957031 219.726562 224.515625 219.726562 C 224.542969 219.726562 224.585938 219.742188 224.617188 219.742188 C 224.746094 219.742188 224.878906 219.699219 225.011719 219.699219 C 225.976562 219.683594 226.953125 219.582031 227.933594 219.40625 C 228.300781 219.34375 228.664062 219.242188 229.015625 219.152344 C 229.4375 219.066406 229.863281 218.992188 230.285156 218.875 C 230.621094 218.757812 230.886719 218.59375 231.207031 218.476562 C 231.6875 218.285156 232.140625 218.09375 232.59375 217.875 C 232.886719 217.742188 233.222656 217.636719 233.488281 217.492188 C 233.882812 217.269531 234.246094 217.003906 234.613281 216.769531 C 234.832031 216.625 235.066406 216.492188 235.285156 216.34375 C 237.066406 215.09375 238.617188 213.53125 239.902344 211.707031 C 240.078125 211.441406 240.238281 211.164062 240.414062 210.882812 C 240.648438 210.515625 240.894531 210.191406 241.101562 209.808594 C 241.246094 209.515625 241.320312 209.25 241.449219 208.96875 C 241.699219 208.46875 241.902344 207.957031 242.09375 207.441406 C 242.210938 207.132812 242.371094 206.835938 242.472656 206.527344 C 242.605469 206.117188 242.664062 205.675781 242.765625 205.261719 C 242.839844 204.953125 242.925781 204.660156 242.96875 204.351562 C 243.191406 203.214844 243.320312 202.082031 243.320312 200.90625 L 251.621094 200.90625 L 256.050781 218.726562 C 257.394531 224.15625 257.015625 229.75 254.953125 234.929688 L 247.339844 254.132812 C 244.5625 261.109375 244.886719 268.984375 248.214844 275.707031 L 255.976562 291.324219 L 193.257812 291.324219 L 201.015625 275.707031 C 204.347656 268.984375 204.667969 261.109375 201.894531 254.132812 L 194.28125 234.929688 C 192.21875 229.75 191.839844 224.15625 193.183594 218.726562 Z M 224.617188 185.835938 C 227.246094 185.835938 229.746094 185.351562 232.097656 184.527344 L 232.097656 188.058594 C 232.097656 191.871094 233.441406 195.625 235.839844 198.582031 L 235.839844 200.90625 C 235.839844 201.628906 235.75 202.320312 235.636719 202.996094 C 235.605469 203.15625 235.5625 203.320312 235.519531 203.46875 C 235.414062 203.921875 235.269531 204.363281 235.109375 204.804688 C 234.992188 205.128906 234.84375 205.46875 234.714844 205.761719 C 234.566406 206.042969 234.421875 206.308594 234.277344 206.570312 C 233.792969 207.382812 233.253906 208.160156 232.609375 208.824219 C 232.535156 208.882812 232.476562 208.941406 232.417969 209 C 231.761719 209.632812 231.03125 210.164062 230.242188 210.632812 C 229.949219 210.796875 229.671875 210.957031 229.378906 211.105469 C 229.132812 211.222656 228.882812 211.324219 228.636719 211.429688 C 228.226562 211.589844 227.800781 211.707031 227.363281 211.824219 C 227.027344 211.898438 226.675781 211.988281 226.328125 212.03125 C 225.976562 212.089844 225.609375 212.121094 225.257812 212.132812 C 224.835938 212.164062 224.425781 212.164062 224.003906 212.148438 C 223.492188 212.121094 222.996094 212.089844 222.511719 212.003906 C 222.4375 211.972656 222.367188 211.957031 222.292969 211.945312 C 222.234375 211.945312 222.191406 211.914062 222.148438 211.914062 C 221.605469 211.796875 221.078125 211.621094 220.570312 211.414062 L 220.453125 211.371094 C 220.378906 211.355469 220.335938 211.324219 220.320312 211.324219 C 216.171875 209.484375 213.394531 205.042969 213.394531 200.273438 L 213.394531 198.582031 C 215.789062 195.625 217.132812 191.871094 217.132812 188.058594 L 217.132812 184.527344 C 219.488281 185.351562 221.984375 185.835938 224.617188 185.835938 Z M 224.617188 121.792969 C 227.816406 121.792969 230.535156 123.835938 231.601562 126.691406 C 229.410156 125.972656 227.058594 125.558594 224.617188 125.558594 C 222.175781 125.558594 219.824219 125.972656 217.632812 126.691406 C 218.699219 123.835938 221.417969 121.792969 224.617188 121.792969 Z M 224.617188 133.09375 C 230.753906 133.09375 236.015625 136.832031 238.324219 142.160156 C 236.144531 141.171875 233.71875 140.628906 231.222656 140.628906 L 218.011719 140.628906 C 215.511719 140.628906 213.085938 141.171875 210.910156 142.160156 C 213.21875 136.832031 218.480469 133.09375 224.617188 133.09375 Z M 224.617188 178.300781 C 216.359375 178.300781 209.652344 171.546875 209.652344 163.234375 L 209.652344 153.035156 C 211.40625 150.046875 214.519531 148.164062 218.011719 148.164062 L 231.222656 148.164062 C 234.714844 148.164062 237.828125 150.046875 239.582031 153.035156 L 239.582031 163.234375 C 239.582031 171.546875 232.871094 178.300781 224.617188 178.300781 Z M 335.296875 273.191406 C 334.316406 272.484375 333.0625 272.292969 331.921875 272.675781 L 321.28125 276.253906 L 308.46875 276.253906 L 288.023438 255.664062 L 282.574219 211.632812 C 281.957031 206.601562 279.519531 201.964844 275.734375 198.582031 C 271.976562 195.226562 267.113281 193.371094 262.027344 193.371094 L 241.332031 193.371094 C 240.222656 191.828125 239.582031 189.972656 239.582031 188.058594 L 239.582031 180.039062 C 244.15625 175.890625 247.0625 169.914062 247.0625 163.234375 L 247.0625 148.164062 C 247.0625 141.421875 244.097656 135.375 239.433594 131.226562 C 239.507812 130.605469 239.582031 129.960938 239.582031 129.328125 C 239.582031 121.011719 232.871094 114.257812 224.617188 114.257812 C 216.359375 114.257812 209.652344 121.011719 209.652344 129.328125 C 209.652344 129.960938 209.726562 130.605469 209.796875 131.226562 C 205.136719 135.375 202.171875 141.421875 202.171875 148.164062 L 202.171875 163.234375 C 202.171875 169.914062 205.078125 175.890625 209.652344 180.039062 L 209.652344 188.058594 C 209.652344 189.972656 209.007812 191.828125 207.898438 193.371094 L 187.207031 193.371094 C 182.121094 193.371094 177.253906 195.226562 173.5 198.582031 C 169.714844 201.964844 167.273438 206.601562 166.660156 211.621094 L 161.210938 255.664062 L 140.765625 276.253906 L 127.964844 276.253906 L 117.3125 272.675781 C 116.171875 272.292969 114.914062 272.484375 113.9375 273.191406 C 112.972656 273.914062 112.386719 275.046875 112.386719 276.253906 L 112.386719 291.324219 C 112.386719 292.75 113.191406 294.042969 114.449219 294.691406 L 119.664062 297.3125 C 116.523438 300.210938 114.226562 303.992188 113.132812 308.277344 C 113.015625 308.703125 112.871094 309.113281 112.78125 309.570312 C 112.664062 310.203125 112.589844 310.835938 112.488281 311.617188 C 112.445312 311.96875 112.386719 312.453125 112.417969 313.042969 C 112.417969 313.132812 112.417969 313.207031 112.417969 313.292969 C 112.417969 313.5 112.386719 313.71875 112.386719 313.925781 C 112.386719 314.25 112.417969 314.558594 112.429688 314.867188 C 112.445312 315.148438 112.460938 315.414062 112.476562 315.664062 C 112.519531 316.191406 112.578125 316.691406 112.648438 317.195312 C 112.695312 317.445312 112.707031 317.679688 112.765625 317.929688 C 112.855469 318.472656 112.972656 319.003906 113.117188 319.535156 C 113.160156 319.722656 113.207031 319.914062 113.265625 320.105469 C 113.425781 320.679688 113.613281 321.242188 113.820312 321.800781 C 113.878906 321.945312 113.921875 322.09375 113.980469 322.242188 C 114.214844 322.816406 114.460938 323.375 114.738281 323.933594 C 114.796875 324.066406 114.855469 324.199219 114.914062 324.316406 C 115.191406 324.859375 115.5 325.390625 115.820312 325.890625 C 115.910156 326.039062 115.996094 326.183594 116.085938 326.316406 C 116.390625 326.789062 116.710938 327.230469 117.0625 327.671875 C 117.179688 327.847656 117.3125 328.023438 117.457031 328.199219 C 117.707031 328.523438 118 328.820312 118.261719 329.113281 C 118.496094 329.378906 118.699219 329.644531 118.949219 329.894531 C 119.285156 330.246094 119.636719 330.554688 119.984375 330.863281 L 120.554688 331.378906 C 120.644531 331.4375 120.730469 331.484375 120.804688 331.554688 C 121.621094 332.203125 122.484375 332.792969 123.375 333.324219 C 123.566406 333.441406 123.742188 333.558594 123.929688 333.675781 C 124.894531 334.207031 125.90625 334.660156 126.941406 335.058594 C 127.132812 335.132812 127.320312 335.207031 127.511719 335.28125 C 128.5625 335.632812 129.660156 335.941406 130.785156 336.132812 C 130.945312 336.175781 131.121094 336.191406 131.28125 336.222656 C 132.449219 336.414062 133.621094 336.53125 134.832031 336.53125 L 314.398438 336.53125 C 315.1875 336.53125 315.964844 336.484375 316.738281 336.414062 C 316.796875 336.398438 316.839844 336.382812 316.882812 336.382812 C 317.613281 336.296875 318.332031 336.191406 319.03125 336.03125 C 319.121094 336.015625 319.191406 336 319.25 335.984375 C 319.9375 335.824219 320.597656 335.664062 321.253906 335.441406 C 321.386719 335.398438 321.53125 335.339844 321.664062 335.292969 C 322.234375 335.089844 322.800781 334.882812 323.359375 334.648438 C 323.578125 334.542969 323.796875 334.425781 324.015625 334.324219 C 324.453125 334.101562 324.90625 333.894531 325.332031 333.644531 C 325.621094 333.484375 325.914062 333.308594 326.191406 333.117188 C 326.527344 332.910156 326.863281 332.703125 327.1875 332.484375 C 327.523438 332.25 327.84375 331.996094 328.152344 331.746094 C 328.414062 331.542969 328.675781 331.351562 328.925781 331.128906 C 329.246094 330.851562 329.570312 330.554688 329.90625 330.246094 C 330.109375 330.027344 330.328125 329.820312 330.53125 329.613281 C 330.695312 329.4375 330.867188 329.304688 331.015625 329.128906 C 331.160156 328.953125 331.292969 328.773438 331.4375 328.597656 C 331.628906 328.363281 331.820312 328.128906 332.023438 327.890625 C 332.285156 327.554688 332.535156 327.199219 332.785156 326.847656 C 332.988281 326.566406 333.179688 326.257812 333.367188 325.964844 C 333.558594 325.640625 333.761719 325.332031 333.9375 325.007812 C 334.171875 324.59375 334.375 324.183594 334.582031 323.773438 C 334.683594 323.519531 334.816406 323.300781 334.917969 323.050781 C 335.164062 322.492188 335.371094 321.933594 335.574219 321.359375 C 335.617188 321.226562 335.675781 321.109375 335.71875 320.976562 C 335.941406 320.285156 336.128906 319.59375 336.277344 318.886719 C 336.289062 318.839844 336.304688 318.796875 336.320312 318.769531 C 336.480469 318.03125 336.597656 317.296875 336.683594 316.546875 C 336.683594 316.515625 336.699219 316.488281 336.699219 316.441406 C 336.773438 315.796875 336.800781 315.132812 336.816406 314.472656 C 336.816406 314.324219 336.832031 314.191406 336.832031 314.058594 C 336.832031 314.015625 336.847656 313.96875 336.847656 313.925781 C 336.847656 313.398438 336.800781 312.882812 336.757812 312.351562 C 336.757812 312.144531 336.757812 311.925781 336.742188 311.71875 C 336.742188 311.703125 336.730469 311.691406 336.730469 311.660156 C 336.714844 311.410156 336.65625 311.175781 336.625 310.9375 C 336.554688 310.453125 336.496094 309.984375 336.40625 309.511719 C 335.472656 304.730469 333.003906 300.492188 329.570312 297.3125 L 334.785156 294.691406 C 336.042969 294.042969 336.847656 292.75 336.847656 291.324219 L 336.847656 276.253906 C 336.847656 275.046875 336.261719 273.914062 335.296875 273.191406 " fill-opacity="1" fill-rule="nonzero"/></g></svg>